# xmcd
#
# Track frame offsets: 
#        150
#        17994
#        39302
#        63007
#        89760
#        113971
#        137583
#        164396
#        176734
#        204916
#
# Disc length: 3036 seconds
#
# Revision: 0
# Processed by: cddbd v1.5.2PL0 Copyright (c) Steve Scherf et al.
# Submitted via: ExactAudioCopy v1.0b3
#
DISCID=830bda0a
DTITLE=Truong Vu - Chuyen Chung Minh
DYEAR=2000
DGENRE=
TTITLE0=Xa moi tinh dau (Doan tai but 2)
TTITLE1=Le tinh
TTITLE2=Chuyen chung minh
TTITLE3=Gap nhau trong mua
TTITLE4=Doi Lan va Diep
TTITLE5=Khuc hat an tinh
TTITLE6=Canh chim bang huu
TTITLE7=Ai xuoi Van Ly (Hon Vong Phu 1)
TTITLE8=Vong phu (Hon Vong Phu 2)
TTITLE9=Chinh phu ve (Hon Vong Phu 3)
EXTD=
EXTT0=
EXTT1=
EXTT2=
EXTT3=
EXTT4=
EXTT5=
EXTT6=
EXTT7=
EXTT8=
EXTT9=
PLAYORDER=
